<svg width="24" height="24" viewBox="0 0 24 24" fill="none" xmlns="http://www.w3.org/2000/svg">
<path fill-rule="evenodd" clip-rule="evenodd" d="M15.85 2.45401C16.481 2.45401 17.111 2.54135 17.71 2.73861C21.401 3.91623 22.731 7.89072 21.62 11.3647C20.99 13.14 19.96 14.7602 18.611 16.084C16.68 17.9192 14.561 19.5482 12.28 20.9516L12.03 21.0997L11.77 20.9417C9.48102 19.5482 7.35002 17.9192 5.40102 16.0742C4.06102 14.7504 3.03002 13.14 2.39002 11.3647C1.26002 7.89072 2.59002 3.91623 6.32102 2.718C6.61102 2.61986 6.91002 2.55117 7.21002 2.5129H7.33002C7.61102 2.47266 7.89002 2.45401 8.17002 2.45401H8.28002C8.91002 2.47266 9.52002 2.58061 10.111 2.77786H10.17C10.21 2.79651 10.24 2.81712 10.26 2.83576C10.481 2.90544 10.69 2.98395 10.89 3.09189L11.27 3.25872C11.3618 3.30678 11.4649 3.38022 11.554 3.44368C11.6104 3.48389 11.6612 3.5201 11.7 3.54332C11.7163 3.55277 11.7329 3.56227 11.7496 3.57184C11.8354 3.62096 11.9247 3.67213 12 3.72879C13.111 2.89562 14.46 2.4442 15.85 2.45401ZM18.51 9.51976C18.92 9.50897 19.27 9.1861 19.3 8.77295V8.65617C19.33 7.2813 18.481 6.03596 17.19 5.55509C16.78 5.41672 16.33 5.6336 16.18 6.04577C16.04 6.45794 16.26 6.90936 16.68 7.05558C17.321 7.29111 17.75 7.91034 17.75 8.59631V8.62673C17.731 8.85146 17.8 9.06834 17.94 9.23517C18.08 9.402 18.29 9.49916 18.51 9.51976Z" fill="white"/>
<path d="M17.71 2.73861L17.5536 3.21354L17.558 3.21495L17.71 2.73861ZM15.85 2.45401L15.8465 2.95401H15.85V2.45401ZM21.62 11.3647L22.0912 11.5319L22.0939 11.5245L22.0963 11.517L21.62 11.3647ZM18.611 16.084L18.9555 16.4465L18.9612 16.4409L18.611 16.084ZM12.28 20.9516L12.535 21.3817L12.542 21.3774L12.28 20.9516ZM12.03 21.0997L11.7704 21.527L12.0268 21.6829L12.285 21.5299L12.03 21.0997ZM11.77 20.9417L11.51 21.3688L11.5104 21.369L11.77 20.9417ZM5.40102 16.0742L5.04953 16.43L5.05729 16.4373L5.40102 16.0742ZM2.39002 11.3647L1.91454 11.5194L1.91698 11.5269L1.91965 11.5343L2.39002 11.3647ZM6.32102 2.718L6.47392 3.19411L6.48129 3.19162L6.32102 2.718ZM7.21002 2.5129V2.0129H7.17825L7.14674 2.01692L7.21002 2.5129ZM7.33002 2.5129V3.0129H7.36563L7.40089 3.00785L7.33002 2.5129ZM8.28002 2.45401L8.29481 1.95423L8.28741 1.95401H8.28002V2.45401ZM10.111 2.77786L9.95272 3.25214L10.0298 3.27786H10.111V2.77786ZM10.17 2.77786L10.3813 2.32468L10.2808 2.27786H10.17V2.77786ZM10.26 2.83576L9.91907 3.20148L10.0018 3.27861L10.1097 3.31262L10.26 2.83576ZM10.89 3.09189L10.6525 3.53189L10.6704 3.54155L10.689 3.54972L10.89 3.09189ZM11.27 3.25872L11.5019 2.81573L11.4867 2.80779L11.471 2.8009L11.27 3.25872ZM11.554 3.44368L11.2638 3.85089L11.2638 3.85089L11.554 3.44368ZM11.7 3.54332L11.4432 3.97237L11.4495 3.97602L11.7 3.54332ZM11.7496 3.57184L11.5011 4.0057V4.0057L11.7496 3.57184ZM12 3.72879L11.6994 4.12834L11.9995 4.35414L12.3 4.12881L12 3.72879ZM19.3 8.77295L19.7987 8.80917L19.8 8.79108V8.77295H19.3ZM18.51 9.51976L18.4634 10.0176L18.4932 10.0204L18.5232 10.0196L18.51 9.51976ZM19.3 8.65617L18.8 8.64526V8.65617H19.3ZM17.19 5.55509L17.3645 5.08654L17.3573 5.08383L17.3499 5.08135L17.19 5.55509ZM16.18 6.04577L15.7101 5.87474L15.7066 5.88496L16.18 6.04577ZM16.68 7.05558L16.8525 6.58619L16.8444 6.58338L16.68 7.05558ZM17.75 8.62673L18.2482 8.66885L18.25 8.64783V8.62673H17.75ZM17.8664 2.26369C17.2103 2.04762 16.5266 1.95401 15.85 1.95401V2.95401C16.4354 2.95401 17.0118 3.03509 17.5536 3.21352L17.8664 2.26369ZM22.0963 11.517C23.2669 7.85658 21.8869 3.54641 17.862 2.26226L17.558 3.21495C20.9152 4.28605 22.1952 7.92485 21.1438 11.2124L22.0963 11.517ZM18.9612 16.4409C20.3648 15.0635 21.436 13.3784 22.0912 11.5319L21.1488 11.1975C20.5441 12.9016 19.5553 14.4568 18.2608 15.7272L18.9612 16.4409ZM12.542 21.3774C14.8525 19.956 16.9991 18.3057 18.9555 16.4465L18.2666 15.7216C16.3609 17.5326 14.2696 19.1405 12.018 20.5257L12.542 21.3774ZM12.285 21.5299L12.535 21.3817L12.0251 20.5214L11.7751 20.6696L12.285 21.5299ZM11.5104 21.369L11.7704 21.527L12.2897 20.6725L12.0297 20.5145L11.5104 21.369ZM5.05729 16.4373C7.03178 18.3064 9.19083 19.9569 11.51 21.3688L12.03 20.5147C9.7712 19.1395 7.66825 17.5319 5.74474 15.7111L5.05729 16.4373ZM1.91965 11.5343C2.585 13.3799 3.65671 15.0538 5.04961 16.4299L5.75242 15.7185C4.46532 14.447 3.47504 12.9001 2.86038 11.1951L1.91965 11.5343ZM6.16813 2.24195C2.1063 3.54643 0.722499 7.85465 1.91454 11.5194L2.8655 11.21C1.79753 7.92678 3.07374 4.28603 6.4739 3.19405L6.16813 2.24195ZM7.14674 2.01692C6.8138 2.05939 6.48231 2.13557 6.16075 2.24438L6.48129 3.19162C6.73973 3.10416 7.00623 3.04295 7.27329 3.00888L7.14674 2.01692ZM7.33002 2.0129H7.21002V3.0129H7.33002V2.0129ZM8.17002 1.95401C7.86762 1.95401 7.56489 1.97417 7.25915 2.01794L7.40089 3.00785C7.65715 2.97115 7.91242 2.95401 8.17002 2.95401V1.95401ZM8.28002 1.95401H8.17002V2.95401H8.28002V1.95401ZM10.2693 2.30358C9.63148 2.0907 8.97311 1.97431 8.29481 1.95423L8.26522 2.9538C8.84693 2.97101 9.40855 3.07052 9.95272 3.25214L10.2693 2.30358ZM10.17 2.27786H10.111V3.27786H10.17V2.27786ZM10.601 2.47004C10.536 2.40949 10.4599 2.36134 10.3813 2.32468L9.95877 3.23104C9.95839 3.23087 9.95488 3.22921 9.94878 3.22522C9.94302 3.22145 9.93248 3.21398 9.91907 3.20148L10.601 2.47004ZM11.1275 2.65189C10.8888 2.52308 10.6469 2.43347 10.4104 2.3589L10.1097 3.31262C10.3151 3.3774 10.4912 3.44481 10.6525 3.53189L11.1275 2.65189ZM11.471 2.8009L11.091 2.63407L10.689 3.54972L11.069 3.71655L11.471 2.8009ZM11.8441 3.03647C11.7629 2.9786 11.6302 2.88289 11.5019 2.81573L11.0382 3.70172C11.0935 3.73068 11.1669 3.78183 11.2638 3.85089L11.8441 3.03647ZM11.9568 3.11431C11.9392 3.10376 11.9074 3.08156 11.8441 3.03647L11.2638 3.85089C11.3134 3.88622 11.3833 3.93643 11.4432 3.97233L11.9568 3.11431ZM11.9982 3.13799C11.9813 3.1283 11.9657 3.11938 11.9506 3.11062L11.4495 3.97602C11.467 3.98615 11.4846 3.99623 11.5011 4.0057L11.9982 3.13799ZM12.3006 3.32925C12.1957 3.25033 12.0778 3.18363 11.9982 3.13799L11.5011 4.0057C11.5929 4.0583 11.6537 4.09392 11.6994 4.12834L12.3006 3.32925ZM15.8535 1.95403C14.3525 1.94343 12.8972 2.43099 11.7 3.32878L12.3 4.12881C13.3248 3.36026 14.5675 2.94497 15.8465 2.954L15.8535 1.95403ZM18.8013 8.73674C18.7905 8.88573 18.6578 9.0157 18.4969 9.01994L18.5232 10.0196C19.1822 10.0022 19.7495 9.48648 19.7987 8.80917L18.8013 8.73674ZM18.8 8.65617V8.77295H19.8V8.65617H18.8ZM17.0155 6.02365C18.1082 6.43065 18.8255 7.48439 18.8001 8.64527L19.7999 8.66708C19.8346 7.0782 18.8538 5.64126 17.3645 5.08654L17.0155 6.02365ZM16.6499 6.21676C16.708 6.05703 16.8802 5.97824 17.0301 6.02884L17.3499 5.08135C16.6798 4.85521 15.952 5.21017 15.7102 5.87478L16.6499 6.21676ZM16.8444 6.58338C16.6806 6.52634 16.6029 6.35544 16.6535 6.20658L15.7066 5.88496C15.4771 6.56044 15.8395 7.29239 16.5156 7.52779L16.8444 6.58338ZM18.25 8.59631C18.25 7.70287 17.6923 6.89483 16.8525 6.58626L16.5076 7.52491C16.9498 7.68739 17.25 8.11782 17.25 8.59631H18.25ZM18.25 8.62673V8.59631H17.25V8.62673H18.25ZM18.323 8.91376C18.2693 8.84969 18.2402 8.76399 18.2482 8.66885L17.2518 8.58461C17.2218 8.93894 17.3308 9.287 17.557 9.55658L18.323 8.91376ZM18.5567 9.02194C18.4469 9.01167 18.366 8.96497 18.323 8.91376L17.557 9.55658C17.794 9.83903 18.1331 9.98664 18.4634 10.0176L18.5567 9.02194Z" fill="black" fill-opacity="0.72"/>
</svg>
