<svg width="24" height="24" viewBox="0 0 24 24" fill="none" xmlns="http://www.w3.org/2000/svg">
<path fill-rule="evenodd" clip-rule="evenodd" d="M15.85 2.45401C16.481 2.45401 17.111 2.54135 17.71 2.73861C21.401 3.91623 22.731 7.89072 21.62 11.3647C20.99 13.14 19.96 14.7602 18.611 16.084C16.68 17.9192 14.561 19.5482 12.28 20.9516L12.03 21.0997L11.77 20.9417C9.48102 19.5482 7.35002 17.9192 5.40102 16.0742C4.06102 14.7504 3.03002 13.14 2.39002 11.3647C1.26002 7.89072 2.59002 3.91623 6.32102 2.718C6.61102 2.61986 6.91002 2.55117 7.21002 2.5129H7.33002C7.61102 2.47266 7.89002 2.45401 8.17002 2.45401H8.28002C8.91002 2.47266 9.52002 2.58061 10.111 2.77786H10.17C10.21 2.79651 10.24 2.81712 10.26 2.83576C10.481 2.90544 10.69 2.98395 10.89 3.09189L11.27 3.25872C11.3618 3.30678 11.4649 3.38022 11.554 3.44368C11.6104 3.48389 11.6612 3.5201 11.7 3.54332C11.7163 3.55277 11.7329 3.56227 11.7496 3.57184C11.8354 3.62096 11.9247 3.67213 12 3.72879C13.111 2.89562 14.46 2.4442 15.85 2.45401ZM18.51 9.51976C18.92 9.50897 19.27 9.1861 19.3 8.77295V8.65617C19.33 7.2813 18.481 6.03596 17.19 5.55509C16.78 5.41672 16.33 5.6336 16.18 6.04577C16.04 6.45794 16.26 6.90936 16.68 7.05558C17.321 7.29111 17.75 7.91034 17.75 8.59631V8.62673C17.731 8.85146 17.8 9.06834 17.94 9.23517C18.08 9.402 18.29 9.49916 18.51 9.51976Z" fill="#F32D12"/>
</svg>
