<svg width="726" height="541" viewBox="0 0 726 541" fill="none" xmlns="http://www.w3.org/2000/svg">
                        <path d="M253 0.326782L254.782 10.3543L265 12.103L254.782 13.8517L253 23.8793L251.218 13.8517L241 12.103L251.218 10.3543L253 0.326782Z" fill="#1E50FF" />
                        <path d="M714 173.045L715.782 183.073L726 184.821L715.782 186.57L714 196.598L712.218 186.57L702 184.821L712.218 183.073L714 173.045Z" fill="#FFC935" />
                        <path d="M285 238.796L286.782 248.823L297 250.572L286.782 252.321L285 262.348L283.218 252.321L273 250.572L283.218 248.823L285 238.796Z" fill="#AA00FF" />
                        <path d="M12 516.519L13.7819 526.547L24 528.295L13.7819 530.044L12 540.072L10.2181 530.044L0 528.295L10.2181 526.547L12 516.519Z" fill="#AA00FF" />
                        <path d="M312 516.519L313.782 526.547L324 528.295L313.782 530.044L312 540.072L310.218 530.044L300 528.295L310.218 526.547L312 516.519Z" fill="#FFC935" />
                    </svg>